<svg width="32" height="32" viewBox="0 0 32 32" fill="none" xmlns="http://www.w3.org/2000/svg">
<path d="M28.8811 18.774L27.2432 19.7281L5.18657 6.65128C4.8044 6.42679 4.64061 5.92167 4.91359 5.5288C5.13197 5.13593 5.62333 4.96756 6.0055 5.24819L28.8811 18.774Z" fill="#0088E9"/>
<path d="M31.2287 14.6209L16.7608 6.03394L7.86178 0.70217C4.36765 -1.31828 0 1.26341 0 5.36045V26.6875C0 30.7846 4.31306 33.3101 7.75258 31.2897L25.114 21.0751L4.09468 8.61562C2.67519 7.77381 2.18383 5.86557 3.00276 4.40634C3.82169 2.89101 5.67795 2.38589 7.09744 3.22774L31.0103 17.4271L31.1741 17.3149C32.266 16.7536 32.266 15.1821 31.2287 14.6209Z" fill="#0088E9"/>
</svg>
