<svg width="140" height="24" viewBox="0 0 140 24" fill="none" xmlns="http://www.w3.org/2000/svg">
<path d="M20.9577 14.8434L19.7691 15.504L3.76366 6.45072C3.48633 6.2953 3.36748 5.9456 3.56556 5.67361C3.72403 5.40163 4.08059 5.28506 4.35792 5.47934L20.9577 14.8434Z" fill="#0088E9"/>
<path d="M22.6612 11.9682L12.1626 6.02333L5.70493 2.33207C3.1694 0.933281 0 2.72062 0 5.55706V20.3221C0 23.1586 3.12979 24.907 5.62569 23.5082L18.2241 16.4366L2.97132 7.81067C1.94126 7.22786 1.5847 5.90676 2.17897 4.89652C2.77323 3.84743 4.12023 3.49773 5.15028 4.08056L22.5028 13.911L22.6216 13.8333C23.414 13.4447 23.414 12.3568 22.6612 11.9682Z" fill="#0088E9"/>
<path d="M44.3619 12.5114H38.9343V21.5647H36.9534V10.8406H44.3619V12.5114Z" fill="#585C6F"/>
<path d="M53.7915 13.3664V21.526H51.9295V20.4769C51.6125 20.8266 51.2164 21.1375 50.7805 21.3317C50.3051 21.526 49.8298 21.6426 49.2751 21.6426C48.1658 21.6426 47.2942 21.3317 46.6207 20.7489C45.9868 20.1272 45.6699 19.2335 45.6699 18.029V13.3664H47.6112V17.7959C47.6112 18.5341 47.7696 19.0781 48.1262 19.4278C48.4827 19.7775 48.9582 19.9718 49.592 19.9718C50.2655 19.9718 50.8201 19.7775 51.256 19.3501C51.6521 18.9227 51.8898 18.301 51.8898 17.5239V13.3664H53.7915Z" fill="#585C6F"/>
<path d="M64.6451 21.5648V16.1251L61.8323 20.6712H61.0003L58.2271 16.0863V21.526H56.4443V13.3664H58.5044L61.4757 18.4953L64.5659 13.3664H66.3883V21.526L64.6451 21.5648Z" fill="#585C6F"/>
<path d="M69.0841 13.3664H71.0254V16.7079H75.2251V13.3664H77.1659V21.526H75.2251V18.301H71.0254V21.526H69.0841V13.3664Z" fill="#585C6F"/>
<path d="M87.9407 13.3663V21.5259H86.079V20.4769C85.7622 20.8654 85.3662 21.1374 84.8903 21.3317C84.4151 21.5259 83.8999 21.6036 83.3055 21.6036C82.5135 21.6036 81.7607 21.4482 81.1271 21.0985C80.4928 20.7488 79.9776 20.2437 79.6215 19.622C79.2648 19.0003 79.0664 18.2621 79.0664 17.4073C79.0664 16.5525 79.2648 15.853 79.6215 15.1925C79.9776 14.5708 80.4928 14.0657 81.1271 13.716C81.7607 13.3663 82.4736 13.2109 83.3055 13.2109C83.8606 13.2109 84.3359 13.2886 84.8111 13.4828C85.247 13.6772 85.6431 13.9491 85.9998 14.2988V13.3663H87.9407ZM85.3263 19.3112C85.8015 18.8449 86.0391 18.2232 86.0391 17.4461C86.0391 16.669 85.8015 16.0474 85.3263 15.5811C84.851 15.1148 84.2566 14.8817 83.5432 14.8817C82.8303 14.8817 82.2359 15.1148 81.7607 15.5811C81.2855 16.0474 81.0479 16.669 81.0479 17.4461C81.0479 18.2232 81.2855 18.8449 81.7607 19.3112C82.2359 19.7775 82.8303 20.0106 83.5432 20.0106C84.2566 20.0106 84.851 19.7775 85.3263 19.3112Z" fill="#585C6F"/>
<path d="M96.6579 17.9901C96.9348 18.3009 97.0932 18.6895 97.0932 19.1558C97.0932 19.6609 96.9348 20.0883 96.5781 20.4769C96.222 20.8654 95.7467 21.1762 95.1524 21.3705C94.558 21.6036 93.8445 21.6814 93.0917 21.6814C92.4581 21.6814 91.8245 21.6036 91.1902 21.4482C90.5565 21.2928 90.0021 21.0985 89.5262 20.8265L90.0813 19.3889C90.4773 19.622 90.9525 19.7775 91.4677 19.894C91.9829 20.0106 92.498 20.0883 93.0125 20.0883C93.6861 20.0883 94.162 19.9717 94.558 19.7775C94.9148 19.5831 95.1124 19.3112 95.1124 18.9615C95.1124 18.6506 94.954 18.4175 94.6765 18.2232C94.3996 18.0678 94.0029 17.9512 93.4485 17.9512H91.8245V16.669H93.2901C93.7653 16.669 94.162 16.5913 94.4389 16.4359C94.7164 16.2805 94.8349 16.0474 94.8349 15.7365C94.8349 15.4256 94.6765 15.1925 94.3204 15.0371C94.0036 14.8817 93.5277 14.7651 92.9333 14.7651C92.1014 14.7651 91.2301 14.9594 90.279 15.3479L89.7645 13.9491C90.8733 13.444 91.9429 13.2109 93.0917 13.2109C93.8052 13.2109 94.4389 13.2886 94.994 13.4828C95.5484 13.6772 95.9844 13.9491 96.3012 14.26C96.618 14.6097 96.7764 14.9982 96.7764 15.4256C96.7764 15.8142 96.6579 16.1639 96.4197 16.4747C96.1821 16.7856 95.8259 17.0187 95.39 17.213C95.9444 17.4461 96.3804 17.6792 96.6579 17.9901Z" fill="#585C6F"/>
<path d="M107.038 13.3664V21.526H105.176V20.4769C104.859 20.8266 104.463 21.1375 104.027 21.3317C103.552 21.526 103.076 21.6426 102.522 21.6426C101.412 21.6426 100.541 21.3317 99.8674 20.7489C99.2338 20.1272 98.9163 19.2335 98.9163 18.029V13.3664H100.858V17.7959C100.858 18.5341 101.016 19.0781 101.373 19.4278C101.729 19.7775 102.205 19.9718 102.839 19.9718C103.512 19.9718 104.067 19.7775 104.503 19.3501C104.899 18.9227 105.136 18.301 105.136 17.5239V13.3664H107.038Z" fill="#585C6F"/>
<path d="M116.744 13.3664V21.526H115V19.0781H112.781L111.078 21.526H108.978L110.959 18.8061C110.365 18.6119 109.889 18.301 109.573 17.8736C109.256 17.4462 109.097 16.9411 109.097 16.3194C109.097 15.3869 109.453 14.6486 110.127 14.1435C110.801 13.6383 111.752 13.3664 112.94 13.3664H116.744ZM111.117 16.3971C111.117 17.3296 111.712 17.757 112.94 17.757H115V14.9983H112.98C111.712 14.9983 111.117 15.4645 111.117 16.3971Z" fill="#585C6F"/>
<path d="M140 12.7453V21.6821H138.296V14.1052H136.355V12.7065L140 12.7453Z" fill="#585C6F"/>
<path d="M130.291 12.7444V21.6812H128.905L123.913 15.6197V21.6812H122.249V12.7444H123.636L128.667 18.8059V12.7444H130.291Z" fill="#585C6F"/>
<path d="M133.382 13.9489C134.017 13.9489 134.531 14.4541 134.531 15.0758C134.531 15.6974 134.017 16.2025 133.382 16.2025C132.749 16.2025 132.233 15.6974 132.233 15.0758C132.194 14.4541 132.749 13.9489 133.382 13.9489ZM133.382 12.7444C132.035 12.7444 130.966 13.7935 130.966 15.1146C130.966 16.4357 132.035 17.4848 133.382 17.4848C134.729 17.4848 135.799 16.4357 135.799 15.1146C135.799 13.7935 134.69 12.7444 133.382 12.7444Z" fill="#585C6F"/>
<path d="M135.522 18.3401H131.284V19.5835H135.522V18.3401Z" fill="#585C6F"/>
<path d="M101.252 7.30478C100.816 7.07168 100.46 6.76082 100.222 6.33338C99.9842 5.90599 99.8657 5.43973 99.8657 4.89575C99.8657 4.35178 99.9842 3.88552 100.222 3.45811C100.46 3.0307 100.816 2.71986 101.252 2.48672C101.688 2.2536 102.203 2.13703 102.758 2.13703C103.312 2.13703 103.827 2.2536 104.263 2.48672C104.699 2.71986 105.055 3.0307 105.294 3.45811C105.531 3.88552 105.65 4.35178 105.65 4.89575C105.65 5.43973 105.531 5.90599 105.294 6.33338C105.055 6.76082 104.699 7.07168 104.263 7.30478C103.827 7.53789 103.312 7.65448 102.758 7.65448C102.203 7.69332 101.688 7.53789 101.252 7.30478ZM103.906 6.13913C104.223 5.82828 104.382 5.43973 104.382 4.93461C104.382 4.42949 104.223 4.04094 103.906 3.7301C103.59 3.41925 103.194 3.26383 102.718 3.26383C102.243 3.26383 101.846 3.41925 101.569 3.7301C101.252 4.04094 101.094 4.42949 101.094 4.93461C101.094 5.43973 101.252 5.82828 101.569 6.13913C101.886 6.44997 102.282 6.6054 102.718 6.6054C103.233 6.6054 103.59 6.44997 103.906 6.13913Z" fill="#585C6F"/>
<path d="M106.957 2.21477H108.225V4.39067H110.999V2.21477H112.267V7.61567H110.999V5.47862H108.225V7.61567H106.957V2.21477Z" fill="#585C6F"/>
<path d="M119.002 2.21477V7.61567H117.735V3.30272H115.675L115.635 4.39067C115.595 5.09006 115.516 5.71175 115.436 6.17801C115.357 6.64427 115.159 7.0328 114.922 7.30481C114.684 7.57683 114.367 7.73225 113.931 7.73225C113.733 7.73225 113.496 7.69335 113.218 7.61567L113.297 6.56659C113.376 6.60543 113.456 6.60543 113.535 6.60543C113.812 6.60543 114.011 6.48884 114.129 6.29458C114.248 6.10031 114.328 5.82832 114.367 5.55633C114.407 5.28434 114.446 4.85693 114.446 4.31296L114.525 2.25363L119.002 2.21477Z" fill="#585C6F"/>
<path d="M126.054 2.21566V7.61656H124.825V6.91717C124.628 7.18912 124.35 7.38345 124.033 7.49997C123.716 7.61656 123.36 7.69424 123.003 7.69424C122.488 7.69424 121.973 7.57772 121.577 7.34455C121.141 7.11144 120.824 6.80059 120.586 6.37321C120.349 5.94577 120.23 5.47951 120.23 4.93554C120.23 4.39156 120.349 3.88644 120.586 3.49789C120.824 3.07048 121.141 2.75964 121.577 2.52651C122.012 2.29337 122.488 2.17681 123.003 2.17681C123.36 2.17681 123.676 2.25452 123.993 2.37109C124.311 2.48765 124.548 2.68193 124.786 2.91506V2.25452L126.054 2.21566ZM124.311 6.14005C124.628 5.82921 124.786 5.44066 124.786 4.93554C124.786 4.43042 124.628 4.04186 124.311 3.73102C123.993 3.42018 123.597 3.26475 123.122 3.26475C122.647 3.26475 122.25 3.42018 121.973 3.73102C121.656 4.04186 121.497 4.43042 121.497 4.93554C121.497 5.44066 121.656 5.82921 121.973 6.14005C122.29 6.45089 122.686 6.60632 123.122 6.60632C123.637 6.60632 124.033 6.45089 124.311 6.14005Z" fill="#585C6F"/>
<path d="M132.987 2.21477V7.61567H131.759V6.91628C131.56 7.14939 131.284 7.34366 131.006 7.46024C130.689 7.57683 130.372 7.65451 130.016 7.65451C129.263 7.65451 128.708 7.46024 128.272 7.07171C127.836 6.68311 127.638 6.06145 127.638 5.28434V2.21477H128.906V5.12892C128.906 5.59519 129.025 5.98374 129.223 6.21687C129.46 6.45 129.778 6.56659 130.174 6.56659C130.61 6.56659 131.006 6.41116 131.244 6.13916C131.521 5.86717 131.64 5.43976 131.64 4.93464V2.21477H132.987Z" fill="#585C6F"/>
<path d="M134.691 2.21477H135.958V4.39067H138.732V2.21477H140V7.61567H138.732V5.47862H135.958V7.61567H134.691V2.21477Z" fill="#585C6F"/>
<path d="M130.292 1.55422C130.73 1.55422 131.085 1.20629 131.085 0.777108C131.085 0.347923 130.73 0 130.292 0C129.855 0 129.5 0.347923 129.5 0.777108C129.5 1.20629 129.855 1.55422 130.292 1.55422Z" fill="#585C6F"/>
</svg>
