<svg width="140" height="24" fill="none" xmlns="http://www.w3.org/2000/svg"><path d="m20.958 14.843-1.189.661L3.764 6.451c-.278-.156-.397-.505-.198-.777.158-.272.515-.389.792-.195l16.6 9.364Z" fill="#0088E9"/><path d="M22.661 11.968 12.163 6.023l-6.458-3.69C3.169.932 0 2.72 0 5.556v14.765c0 2.837 3.13 4.585 5.626 3.186l12.598-7.071L2.971 7.81a2.125 2.125 0 0 1-.792-2.914c.594-1.05 1.941-1.4 2.971-.816l17.353 9.83.119-.078c.792-.388.792-1.476.04-1.865Z" fill="#0088E9"/><path d="M44.362 12.511h-5.428v9.054h-1.98V10.84h7.408v1.67Zm9.429.855v8.16H51.93v-1.05a3.53 3.53 0 0 1-1.15.856c-.475.194-.95.31-1.505.31-1.11 0-1.98-.31-2.654-.893-.634-.622-.951-1.515-.951-2.72v-4.663h1.941v4.43c0 .738.159 1.282.515 1.632.357.35.832.544 1.466.544.674 0 1.228-.195 1.664-.622.396-.427.634-1.049.634-1.826v-4.158h1.901Zm10.854 8.199v-5.44l-2.813 4.546H61l-2.773-4.585v5.44h-1.783v-8.16h2.06l2.972 5.13 3.09-5.13h1.822v8.16l-1.743.039Zm4.439-8.199h1.941v3.342h4.2v-3.342h1.94v8.16h-1.94v-3.225h-4.2v3.225h-1.94v-8.16Zm18.856 0v8.16h-1.86v-1.05c-.317.39-.713.661-1.189.856-.475.194-.99.272-1.585.272-.792 0-1.544-.156-2.178-.505a3.884 3.884 0 0 1-1.505-1.477c-.357-.622-.556-1.36-.556-2.215 0-.855.199-1.554.555-2.214a3.884 3.884 0 0 1 1.506-1.477c.634-.35 1.347-.505 2.178-.505.556 0 1.03.078 1.506.272a4.04 4.04 0 0 1 1.189.816v-.933h1.94Zm-2.614 5.945c.476-.466.713-1.088.713-1.865 0-.777-.237-1.399-.713-1.865-.475-.466-1.07-.7-1.783-.7-.713 0-1.307.234-1.782.7-.475.466-.713 1.088-.713 1.865 0 .777.237 1.399.713 1.865.475.466 1.07.7 1.782.7.714 0 1.308-.233 1.783-.7Zm11.332-1.321c.277.31.435.7.435 1.166 0 .505-.158.932-.515 1.32a3.29 3.29 0 0 1-1.426.895c-.594.233-1.308.31-2.06.31a7.964 7.964 0 0 1-1.902-.233c-.633-.155-1.188-.35-1.664-.622l.555-1.437c.396.233.871.389 1.387.505.515.117 1.03.194 1.544.194.674 0 1.15-.116 1.546-.31.357-.195.554-.467.554-.816 0-.311-.158-.544-.435-.739-.277-.155-.674-.272-1.229-.272h-1.623V16.67h1.465c.475 0 .872-.078 1.149-.233.277-.155.396-.389.396-.7 0-.31-.158-.543-.515-.699-.316-.155-.792-.272-1.387-.272-.832 0-1.703.194-2.654.583l-.514-1.399c1.108-.505 2.178-.738 3.327-.738.713 0 1.347.078 1.902.272.554.194.99.466 1.307.777.317.35.475.738.475 1.166 0 .388-.118.738-.356 1.049-.238.31-.594.544-1.03.738.554.233.99.466 1.268.777Zm10.38-4.624v8.16h-1.862v-1.05c-.317.35-.713.662-1.149.856-.475.194-.951.31-1.505.31-1.11 0-1.981-.31-2.655-.893-.633-.622-.95-1.515-.95-2.72v-4.663h1.941v4.43c0 .738.158 1.282.515 1.632.356.35.832.544 1.466.544.673 0 1.228-.195 1.664-.622.396-.427.633-1.049.633-1.826v-4.158h1.902Zm9.706 0v8.16H115v-2.448h-2.219l-1.703 2.448h-2.1l1.981-2.72c-.594-.194-1.07-.505-1.386-.932-.317-.428-.476-.933-.476-1.555 0-.932.356-1.67 1.03-2.175.674-.506 1.625-.778 2.813-.778h3.804Zm-5.627 3.031c0 .933.595 1.36 1.823 1.36H115v-2.759h-2.02c-1.268 0-1.863.466-1.863 1.4ZM140 12.745v8.937h-1.704v-7.577h-1.941v-1.399l3.645.04Zm-9.709-.001v8.937h-1.386l-4.992-6.061v6.061h-1.664v-8.937h1.387l5.031 6.062v-6.062h1.624Zm3.091 1.205c.635 0 1.149.505 1.149 1.127 0 .621-.514 1.127-1.149 1.127a1.14 1.14 0 0 1-1.149-1.127c-.039-.622.516-1.127 1.149-1.127Zm0-1.205c-1.347 0-2.416 1.05-2.416 2.37 0 1.322 1.069 2.37 2.416 2.37s2.417-1.048 2.417-2.37c0-1.32-1.109-2.37-2.417-2.37Zm2.14 5.596h-4.238v1.244h4.238V18.34Zm-34.27-11.035c-.436-.233-.792-.544-1.03-.972a2.871 2.871 0 0 1-.356-1.437c0-.544.118-1.01.356-1.438.238-.427.594-.738 1.03-.971.436-.233.951-.35 1.506-.35.554 0 1.069.117 1.505.35.436.233.792.544 1.031.971.237.428.356.894.356 1.438a2.88 2.88 0 0 1-.356 1.437c-.239.428-.595.739-1.031.972-.436.233-.951.35-1.505.35-.555.038-1.07-.117-1.506-.35Zm2.654-1.166c.317-.31.476-.7.476-1.204 0-.506-.159-.894-.476-1.205-.316-.31-.712-.466-1.188-.466-.475 0-.872.155-1.149.466-.317.31-.475.7-.475 1.205 0 .505.158.893.475 1.204.317.311.713.466 1.149.466.515 0 .872-.155 1.188-.466Zm3.051-3.924h1.268V4.39h2.774V2.215h1.268v5.4h-1.268V5.48h-2.774v2.137h-1.268V2.215Zm12.045 0v5.4h-1.267V3.304h-2.06l-.04 1.088c-.04.7-.119 1.32-.199 1.787a2.31 2.31 0 0 1-.514 1.127c-.238.272-.555.427-.991.427-.198 0-.435-.039-.713-.116l.079-1.05a.513.513 0 0 0 .238.04c.277 0 .476-.117.594-.311.119-.195.199-.467.238-.739.04-.272.079-.7.079-1.243l.079-2.06 4.477-.038Zm7.052.001v5.4h-1.229v-.699a1.679 1.679 0 0 1-.792.583 3.025 3.025 0 0 1-1.03.194c-.515 0-1.03-.116-1.426-.35a2.366 2.366 0 0 1-.991-.97 2.88 2.88 0 0 1-.356-1.438c0-.544.119-1.05.356-1.438.238-.428.555-.738.991-.971.435-.234.911-.35 1.426-.35.357 0 .673.078.99.194.318.117.555.31.793.544v-.66l1.268-.04Zm-1.743 3.924c.317-.31.475-.7.475-1.204 0-.506-.158-.894-.475-1.205-.318-.31-.714-.466-1.189-.466-.475 0-.872.155-1.149.466-.317.31-.476.7-.476 1.205 0 .505.159.893.476 1.204.317.31.713.466 1.149.466.515 0 .911-.155 1.189-.466Zm8.676-3.925v5.4h-1.228v-.699a2.07 2.07 0 0 1-.753.544 2.805 2.805 0 0 1-.99.195c-.753 0-1.308-.195-1.744-.583-.436-.389-.634-1.01-.634-1.788v-3.07h1.268V5.13c0 .466.119.855.317 1.088.237.233.555.35.951.35.436 0 .832-.156 1.07-.428.277-.272.396-.7.396-1.204v-2.72h1.347Zm1.704 0h1.267V4.39h2.774V2.215H140v5.4h-1.268V5.48h-2.774v2.137h-1.267V2.215Zm-4.399-.661a.785.785 0 0 0 .793-.777.785.785 0 0 0-.793-.777.785.785 0 0 0-.792.777c0 .43.355.777.792.777Z" fill="#585C6F"/></svg>